<?xml version="1.0" encoding="UTF-8" standalone="no"?>
<!DOCTYPE svg PUBLIC "-//W3C//DTD SVG 1.1//EN"
 "http://www.w3.org/Graphics/SVG/1.1/DTD/svg11.dtd">
<!-- Generated by graphviz version 2.30.1 (20130214.1330)
 -->
<!-- Title: G Pages: 1 -->
<svg width="410pt" height="312pt"
 viewBox="0.00 0.00 410.00 312.00" xmlns="http://www.w3.org/2000/svg" xmlns:xlink="http://www.w3.org/1999/xlink">
<g id="graph0" class="graph" transform="scale(1 1) rotate(0) translate(4 308)">
<title>G</title>
<polygon fill="white" stroke="white" points="-4,5 -4,-308 407,-308 407,5 -4,5"/>
<g id="clust1" class="cluster"><title>cluster_global</title>
<path fill="none" stroke="gray" d="M238,-8C238,-8 382,-8 382,-8 388,-8 394,-14 394,-20 394,-20 394,-284 394,-284 394,-290 388,-296 382,-296 382,-296 238,-296 238,-296 232,-296 226,-290 226,-284 226,-284 226,-20 226,-20 226,-14 232,-8 238,-8"/>
<text text-anchor="middle" x="310" y="-283.2" font-family="Times New Roman,serif" font-size="11.00" fill="gray">global</text>
</g>
<!-- \\DJ_SchemaCreator -->
<g id="node1" class="node"><title>\\DJ_SchemaCreator</title>
<g id="a_node1"><a xlink:href="dj-schema-creator.html" xlink:title="DJ_SchemaCreator" target="_parent">
<polygon fill="none" stroke="black" points="372.5,-268 247.5,-268 247.5,-232 372.5,-232 372.5,-268"/>
<text text-anchor="middle" x="310" y="-247.2" font-family="Courier,monospace" font-size="11.00">DJ_SchemaCreator</text>
</a>
</g>
</g>
<!-- \\DJ_SchemaScraperI18n -->
<g id="node2" class="node"><title>\\DJ_SchemaScraperI18n</title>
<g id="a_node2"><a xlink:href="lib.schema-scraper-i18n.html" xlink:title="DJ_SchemaScraperI18n" target="_parent">
<polygon fill="none" stroke="black" points="386,-214 234,-214 234,-178 386,-178 386,-214"/>
<text text-anchor="middle" x="310" y="-193.2" font-family="Courier,monospace" font-size="11.00">DJ_SchemaScraperI18n</text>
</a>
</g>
</g>
<!-- \\DJ_SchemaScraper -->
<g id="node3" class="node"><title>\\DJ_SchemaScraper</title>
<g id="a_node3"><a xlink:href="lib.schema-scraper.html" xlink:title="DJ_SchemaScraper" target="_parent">
<polygon fill="none" stroke="black" points="372.5,-160 247.5,-160 247.5,-124 372.5,-124 372.5,-160"/>
<text text-anchor="middle" x="310" y="-139.2" font-family="Courier,monospace" font-size="11.00">DJ_SchemaScraper</text>
</a>
</g>
</g>
<!-- \\DJ_SchemaViewer -->
<g id="node4" class="node"><title>\\DJ_SchemaViewer</title>
<g id="a_node4"><a xlink:href="lib.schema-viewer.html" xlink:title="DJ_SchemaViewer" target="_parent">
<polygon fill="none" stroke="black" points="369,-106 251,-106 251,-70 369,-70 369,-106"/>
<text text-anchor="middle" x="310" y="-85.2" font-family="Courier,monospace" font-size="11.00">DJ_SchemaViewer</text>
</a>
</g>
</g>
<!-- \\BasicTest -->
<g id="node5" class="node"><title>\\BasicTest</title>
<g id="a_node5"><a xlink:href="tests.SchemaCreator.BasicTest.html" xlink:title="BasicTest" target="_parent">
<polygon fill="none" stroke="black" points="348.5,-52 271.5,-52 271.5,-16 348.5,-16 348.5,-52"/>
<text text-anchor="middle" x="310" y="-31.2" font-family="Courier,monospace" font-size="11.00">BasicTest</text>
</a>
</g>
</g>
<!-- \\WP_UnitTestCase -->
<g id="node6" class="node"><title>\\WP_UnitTestCase</title>
<ellipse fill="none" stroke="black" cx="81" cy="-34" rx="81.4863" ry="18"/>
<text text-anchor="middle" x="81" y="-30.3" font-family="Times New Roman,serif" font-size="14.00" fill="gray">\WP_UnitTestCase</text>
</g>
<!-- \\BasicTest&#45;&gt;\\WP_UnitTestCase -->
<g id="edge1" class="edge"><title>\\BasicTest&#45;&gt;\\WP_UnitTestCase</title>
<path fill="none" stroke="black" d="M271.261,-34C244.411,-34 207.15,-34 172.786,-34"/>
<polygon fill="none" stroke="black" points="172.707,-30.5001 162.707,-34 172.707,-37.5001 172.707,-30.5001"/>
</g>
</g>
</svg>
