<?xml version="1.0" encoding="UTF-8" standalone="no"?>
<!DOCTYPE svg PUBLIC "-//W3C//DTD SVG 1.1//EN"
 "http://www.w3.org/Graphics/SVG/1.1/DTD/svg11.dtd">
<!-- Generated by graphviz version 2.30.1 (20130214.1330)
 -->
<!-- Title: G Pages: 1 -->
<svg width="192pt" height="258pt"
 viewBox="0.00 0.00 192.00 258.00" xmlns="http://www.w3.org/2000/svg" xmlns:xlink="http://www.w3.org/1999/xlink">
<g id="graph0" class="graph" transform="scale(1 1) rotate(0) translate(4 254)">
<title>G</title>
<polygon fill="white" stroke="white" points="-4,5 -4,-254 189,-254 189,5 -4,5"/>
<g id="clust1" class="cluster"><title>cluster_global</title>
<path fill="none" stroke="gray" d="M20,-8C20,-8 164,-8 164,-8 170,-8 176,-14 176,-20 176,-20 176,-230 176,-230 176,-236 170,-242 164,-242 164,-242 20,-242 20,-242 14,-242 8,-236 8,-230 8,-230 8,-20 8,-20 8,-14 14,-8 20,-8"/>
<text text-anchor="middle" x="92" y="-229.2" font-family="Times New Roman,serif" font-size="11.00" fill="gray">global</text>
</g>
<!-- \\DJ_SchemaCreator -->
<g id="node1" class="node"><title>\\DJ_SchemaCreator</title>
<g id="a_node1"><a xlink:href="dj-schema-creator.html" xlink:title="DJ_SchemaCreator" target="_parent">
<polygon fill="none" stroke="black" points="154.5,-214 29.5,-214 29.5,-178 154.5,-178 154.5,-214"/>
<text text-anchor="middle" x="92" y="-193.2" font-family="Courier,monospace" font-size="11.00">DJ_SchemaCreator</text>
</a>
</g>
</g>
<!-- \\DJ_SchemaScraperI18n -->
<g id="node2" class="node"><title>\\DJ_SchemaScraperI18n</title>
<g id="a_node2"><a xlink:href="lib.schema-scraper-i18n.html" xlink:title="DJ_SchemaScraperI18n" target="_parent">
<polygon fill="none" stroke="black" points="168,-160 16,-160 16,-124 168,-124 168,-160"/>
<text text-anchor="middle" x="92" y="-139.2" font-family="Courier,monospace" font-size="11.00">DJ_SchemaScraperI18n</text>
</a>
</g>
</g>
<!-- \\DJ_SchemaScraper -->
<g id="node3" class="node"><title>\\DJ_SchemaScraper</title>
<g id="a_node3"><a xlink:href="lib.schema-scraper.html" xlink:title="DJ_SchemaScraper" target="_parent">
<polygon fill="none" stroke="black" points="154.5,-106 29.5,-106 29.5,-70 154.5,-70 154.5,-106"/>
<text text-anchor="middle" x="92" y="-85.2" font-family="Courier,monospace" font-size="11.00">DJ_SchemaScraper</text>
</a>
</g>
</g>
<!-- \\DJ_SchemaViewer -->
<g id="node4" class="node"><title>\\DJ_SchemaViewer</title>
<g id="a_node4"><a xlink:href="lib.schema-viewer.html" xlink:title="DJ_SchemaViewer" target="_parent">
<polygon fill="none" stroke="black" points="151,-52 33,-52 33,-16 151,-16 151,-52"/>
<text text-anchor="middle" x="92" y="-31.2" font-family="Courier,monospace" font-size="11.00">DJ_SchemaViewer</text>
</a>
</g>
</g>
</g>
</svg>
